# xmcd CD database file
#
# Track frame offsets:
#	187
#	13200
#	22500
#	33375
#	44362
#	50812
#	64950
#	76650
#	90037
#	102862
#	116812
#	127012
#	141862
#	162637
#	181162
#	199762
#	209400
#	216562
#	232125
#	260962
#	267637
#	278287
#	286237
#	297562
#
# Disc length: 4156 seconds
#
# Revision: 2
# Processed by: cddbd v1.5.1PL0 Copyright (c) Steve Scherf et al.
# Submitted via: CDex 1.51
#
DISCID=73103a18
DTITLE=Various Artist - Rounder Banjo
DYEAR=1987
DGENRE=Bluegrass
TTITLE0=J.D. Crowe and the New South:  Runaround
TTITLE1=Allen Shelton:  Shelton Special
TTITLE2=Alan O'Bryant:  Old Timey Risin' Damp
TTITLE3=Herb Pedersen:  Foggy Mountain Chimes
TTITLE4=Alan Munde:  Banjo Boy Chimes
TTITLE5=Bill Keith:  Clinging Vine
TTITLE6=John Hickman:  Don't Mean Maybe
TTITLE7=Johnnie Whisnant:  Maple Leaf Rag
TTITLE8=Richard Underwood:  Five Speed
TTITLE9=Lamar Grier:  Banjo Picking Girl
TTITLE10=Paul Silvius:  Lonesome Road Blues
TTITLE11=John Hartford:  Scapin' Out on the Roof
TTITLE12=Marty Cutler:  Le Chamoix Cornu
TTITLE13=Peter Wernick:  Huckling the Berries
TTITLE14=Tony Trischka:  A Robot Plane Flies Over Arkansas
TTITLE15=Harley Bray:  Harley's Breakdown
TTITLE16=Snuffy Jenkins:  House of David Blues
TTITLE17=William J. Ball:  Dream Dance
TTITLE18=Bela Fleck:  Perplexed
TTITLE19=Joe Drumright:  Thunderhead
TTITLE20=Don Stover:  White Oak Breakdown
TTITLE21=Terry Baucom:  White House Blues
TTITLE22=Ted Lundy:  Goodbye Liza Jane
TTITLE23=Butch Robins:  Kansas City Railroad Blues
EXTD=Excerpts from other Rounder albums YEAR: 1987
EXTT0=J.D. Crowe and The New South
EXTT1=Allen Shelton
EXTT2=Alan O'Bryant
EXTT3=Herb Pedersen
EXTT4=Alan Munde
EXTT5=Bill Keith
EXTT6=John Hickman
EXTT7=Johnnie Whisnant
EXTT8=Richard Underwood
EXTT9=Lamar Grier
EXTT10=Paul Silvius
EXTT11=John Hartford
EXTT12=Marty Cutler
EXTT13=Peter Wernick
EXTT14=Tony Trischka
EXTT15=Harley Bray
EXTT16=Snuffy Jenkins
EXTT17=William J. Ball
EXTT18=Bela Fleck
EXTT19=Joe Drumright
EXTT20=Don Stover
EXTT21=Terry Baucom
EXTT22=Ted Lundy
EXTT23=Butch Robins
PLAYORDER=
